# xmcd
#
# Track frame offsets: 
#        150
#        4915
#        50550
#        65538
#        87423
#        109850
#        133145
#        155385
#        176620
#        200373
#        225378
#        251085
#        268683
#
# Disc length: 3664 seconds
#
# Revision: 0
# Processed by: cddbd v1.5.2PL0 Copyright (c) Steve Scherf et al.
# Submitted via: ExactAudioCopy v1.0b3
#
DISCID=b30e4e0d
DTITLE=Duy Khanh - Khong Chu De
DYEAR=1991
DGENRE=
TTITLE0=Hoang Hoa - Loi gioi thieu
TTITLE1=Duy Khanh, Huong Lan - Huyen su ca mot nguoi mang ten Quoc
TTITLE2=Huong Lan - Em di chua Huong
TTITLE3=Cach biet
TTITLE4=Carol Kim - Anh den ben toi
TTITLE5=Tinh nuoc
TTITLE6=Duy Khanh, Ha Thanh - Tieng dan chai
TTITLE7=Mua chia tay
TTITLE8=Thanh Huyen - Hai mua mua
TTITLE9=Duy Khanh, Huong Lan - Khuc ca Dong Thap
TTITLE10=Ha Thanh - Ben Xuan (Dan chim Viet)
TTITLE11=Hoa van no tren duong que huong
TTITLE12=Hoang Hoa - Loi cam ta
EXTD=
EXTT0=
EXTT1=
EXTT2=
EXTT3=
EXTT4=
EXTT5=
EXTT6=
EXTT7=
EXTT8=
EXTT9=
EXTT10=
EXTT11=
EXTT12=
PLAYORDER=
